<mxfile host="app.diagrams.net" agent="Mozilla/5.0 (Windows NT 10.0; Win64; x64) AppleWebKit/537.36 (KHTML, like Gecko) Chrome/135.0.0.0 Safari/537.36" version="26.2.9">
  <diagram name="Страница — 1" id="NKEc33iRc2lxp1brSEUF">
    <mxGraphModel dx="1428" dy="785" grid="1" gridSize="10" guides="1" tooltips="1" connect="1" arrows="1" fold="1" page="1" pageScale="1" pageWidth="827" pageHeight="1169" math="0" shadow="0">
      <root>
        <mxCell id="0" />
        <mxCell id="1" parent="0" />
        <mxCell id="ZGIUVD3GOenGYrUrsSvs-17" style="edgeStyle=orthogonalEdgeStyle;rounded=0;orthogonalLoop=1;jettySize=auto;html=1;entryX=0;entryY=0.5;entryDx=0;entryDy=0;" parent="1" source="ZGIUVD3GOenGYrUrsSvs-1" target="ZGIUVD3GOenGYrUrsSvs-10" edge="1">
          <mxGeometry relative="1" as="geometry">
            <Array as="points">
              <mxPoint x="55" y="150" />
              <mxPoint x="182" y="150" />
              <mxPoint x="182" y="290" />
            </Array>
          </mxGeometry>
        </mxCell>
        <mxCell id="ZGIUVD3GOenGYrUrsSvs-1" value="User" style="shape=umlActor;verticalLabelPosition=bottom;verticalAlign=top;html=1;outlineConnect=0;" parent="1" vertex="1">
          <mxGeometry x="40" y="80" width="30" height="60" as="geometry" />
        </mxCell>
        <mxCell id="ZGIUVD3GOenGYrUrsSvs-9" style="edgeStyle=orthogonalEdgeStyle;rounded=0;orthogonalLoop=1;jettySize=auto;html=1;entryX=0.75;entryY=0;entryDx=0;entryDy=0;" parent="1" source="ZGIUVD3GOenGYrUrsSvs-4" target="ZGIUVD3GOenGYrUrsSvs-5" edge="1">
          <mxGeometry relative="1" as="geometry" />
        </mxCell>
        <mxCell id="ZGIUVD3GOenGYrUrsSvs-16" style="edgeStyle=orthogonalEdgeStyle;rounded=0;orthogonalLoop=1;jettySize=auto;html=1;entryX=0.5;entryY=0;entryDx=0;entryDy=0;" parent="1" source="ZGIUVD3GOenGYrUrsSvs-4" target="ZGIUVD3GOenGYrUrsSvs-10" edge="1">
          <mxGeometry relative="1" as="geometry" />
        </mxCell>
        <mxCell id="ZGIUVD3GOenGYrUrsSvs-4" value="Tech" style="shape=umlActor;verticalLabelPosition=bottom;verticalAlign=top;html=1;outlineConnect=0;" parent="1" vertex="1">
          <mxGeometry x="220" y="80" width="30" height="60" as="geometry" />
        </mxCell>
        <mxCell id="ZGIUVD3GOenGYrUrsSvs-7" value="" style="edgeStyle=orthogonalEdgeStyle;rounded=0;orthogonalLoop=1;jettySize=auto;html=1;" parent="1" source="ZGIUVD3GOenGYrUrsSvs-5" target="ZGIUVD3GOenGYrUrsSvs-6" edge="1">
          <mxGeometry relative="1" as="geometry" />
        </mxCell>
        <mxCell id="ZGIUVD3GOenGYrUrsSvs-5" value="User Service" style="rounded=0;whiteSpace=wrap;html=1;" parent="1" vertex="1">
          <mxGeometry x="30" y="260" width="120" height="60" as="geometry" />
        </mxCell>
        <mxCell id="ZGIUVD3GOenGYrUrsSvs-6" value="" style="shape=cylinder3;whiteSpace=wrap;html=1;boundedLbl=1;backgroundOutline=1;size=15;" parent="1" vertex="1">
          <mxGeometry x="60" y="430" width="60" height="80" as="geometry" />
        </mxCell>
        <mxCell id="ZGIUVD3GOenGYrUrsSvs-8" style="edgeStyle=orthogonalEdgeStyle;rounded=0;orthogonalLoop=1;jettySize=auto;html=1;entryX=0.424;entryY=0.014;entryDx=0;entryDy=0;entryPerimeter=0;" parent="1" source="ZGIUVD3GOenGYrUrsSvs-1" target="ZGIUVD3GOenGYrUrsSvs-5" edge="1">
          <mxGeometry relative="1" as="geometry" />
        </mxCell>
        <mxCell id="ZGIUVD3GOenGYrUrsSvs-13" style="edgeStyle=orthogonalEdgeStyle;rounded=0;orthogonalLoop=1;jettySize=auto;html=1;" parent="1" source="ZGIUVD3GOenGYrUrsSvs-10" target="ZGIUVD3GOenGYrUrsSvs-12" edge="1">
          <mxGeometry relative="1" as="geometry" />
        </mxCell>
        <mxCell id="ZGIUVD3GOenGYrUrsSvs-18" style="edgeStyle=orthogonalEdgeStyle;rounded=0;orthogonalLoop=1;jettySize=auto;html=1;entryX=0.5;entryY=0;entryDx=0;entryDy=0;" parent="1" source="ZGIUVD3GOenGYrUrsSvs-10" target="ZGIUVD3GOenGYrUrsSvs-14" edge="1">
          <mxGeometry relative="1" as="geometry" />
        </mxCell>
        <mxCell id="ZGIUVD3GOenGYrUrsSvs-10" value="Task Service" style="rounded=0;whiteSpace=wrap;html=1;" parent="1" vertex="1">
          <mxGeometry x="294" y="260" width="120" height="60" as="geometry" />
        </mxCell>
        <mxCell id="ZGIUVD3GOenGYrUrsSvs-20" style="edgeStyle=orthogonalEdgeStyle;rounded=0;orthogonalLoop=1;jettySize=auto;html=1;" parent="1" source="ZGIUVD3GOenGYrUrsSvs-11" target="ZGIUVD3GOenGYrUrsSvs-1" edge="1">
          <mxGeometry relative="1" as="geometry">
            <Array as="points">
              <mxPoint x="10" y="510" />
              <mxPoint x="10" y="110" />
            </Array>
          </mxGeometry>
        </mxCell>
        <mxCell id="ZGIUVD3GOenGYrUrsSvs-11" value="Notification" style="rounded=0;whiteSpace=wrap;html=1;" parent="1" vertex="1">
          <mxGeometry x="294" y="480" width="120" height="60" as="geometry" />
        </mxCell>
        <mxCell id="ZGIUVD3GOenGYrUrsSvs-12" value="" style="shape=cylinder3;whiteSpace=wrap;html=1;boundedLbl=1;backgroundOutline=1;size=15;" parent="1" vertex="1">
          <mxGeometry x="540" y="250" width="60" height="80" as="geometry" />
        </mxCell>
        <mxCell id="ZGIUVD3GOenGYrUrsSvs-19" style="edgeStyle=orthogonalEdgeStyle;rounded=0;orthogonalLoop=1;jettySize=auto;html=1;entryX=0.5;entryY=0;entryDx=0;entryDy=0;" parent="1" source="ZGIUVD3GOenGYrUrsSvs-14" target="ZGIUVD3GOenGYrUrsSvs-11" edge="1">
          <mxGeometry relative="1" as="geometry" />
        </mxCell>
        <mxCell id="ZGIUVD3GOenGYrUrsSvs-14" value="Notification Quie" style="rounded=1;whiteSpace=wrap;html=1;" parent="1" vertex="1">
          <mxGeometry x="294" y="360" width="120" height="60" as="geometry" />
        </mxCell>
      </root>
    </mxGraphModel>
  </diagram>
</mxfile>
